<?xml version="1.0" encoding="UTF-8"?>
<svg xmlns="http://www.w3.org/2000/svg" xmlns:xlink="http://www.w3.org/1999/xlink" width="32px" height="32px" viewBox="0 0 32 32" version="1.1">
<g id="surface1">
<path style=" stroke:none;fill-rule:evenodd;fill:rgb(0%,0%,0%);fill-opacity:1;" d="M 0 0.0351562 C 0 0.0546875 0.0078125 0.0703125 0.0195312 0.0703125 C 0.03125 0.0703125 0.0390625 5.414062 0.0390625 16.035156 L 0.0390625 32 L 31.960938 32 L 31.960938 16.046875 C 31.960938 0.898438 31.960938 0.09375 31.996094 0.0507812 C 32.023438 0.0117188 29.335938 0.00390625 16.015625 0 C 5.351562 0 0 0.0117188 0 0.0351562 M 19.914062 10.996094 C 19.519531 11.109375 19.269531 11.425781 19.1875 11.914062 C 19.148438 12.140625 19.148438 12.226562 19.152344 13.96875 L 19.160156 15.789062 L 19.210938 15.980469 C 19.304688 16.339844 19.519531 16.625 19.773438 16.722656 C 20.195312 16.894531 20.761719 16.804688 21.027344 16.523438 C 21.121094 16.429688 21.253906 16.183594 21.300781 16.027344 C 21.316406 15.96875 21.339844 15.816406 21.355469 15.6875 C 21.378906 15.4375 21.375 14.804688 21.347656 14.757812 C 21.335938 14.742188 21.210938 14.726562 21.0625 14.726562 C 20.847656 14.726562 20.792969 14.738281 20.777344 14.78125 C 20.765625 14.808594 20.757812 14.957031 20.757812 15.109375 C 20.757812 15.527344 20.695312 15.710938 20.519531 15.820312 C 20.421875 15.882812 20.148438 15.894531 20.035156 15.839844 C 19.933594 15.789062 19.828125 15.613281 19.804688 15.457031 C 19.789062 15.371094 19.785156 14.8125 19.789062 13.800781 C 19.792969 12.058594 19.785156 12.15625 19.972656 11.988281 C 20.058594 11.910156 20.097656 11.898438 20.269531 11.898438 C 20.441406 11.898438 20.480469 11.910156 20.566406 11.988281 C 20.710938 12.117188 20.742188 12.210938 20.753906 12.550781 C 20.765625 12.929688 20.773438 12.941406 21.070312 12.941406 C 21.273438 12.941406 21.296875 12.933594 21.335938 12.867188 C 21.375 12.796875 21.378906 12.765625 21.367188 12.394531 C 21.359375 12.0625 21.351562 11.964844 21.304688 11.78125 C 21.214844 11.425781 21.070312 11.226562 20.785156 11.066406 C 20.671875 11.003906 20.589844 10.988281 20.332031 10.976562 C 20.15625 10.972656 19.96875 10.976562 19.914062 10.996094 M 17.214844 11.113281 C 17.199219 11.15625 17.148438 11.421875 17.101562 11.703125 C 17.054688 11.984375 16.976562 12.472656 16.921875 12.78125 C 16.871094 13.09375 16.773438 13.683594 16.707031 14.089844 C 16.636719 14.5 16.539062 15.085938 16.488281 15.398438 C 16.273438 16.667969 16.273438 16.65625 16.320312 16.714844 C 16.375 16.789062 16.808594 16.765625 16.855469 16.683594 C 16.871094 16.652344 16.925781 16.382812 16.976562 16.085938 C 17.023438 15.789062 17.070312 15.53125 17.074219 15.515625 C 17.082031 15.5 17.277344 15.488281 17.507812 15.488281 C 17.824219 15.488281 17.9375 15.5 17.953125 15.53125 C 17.960938 15.554688 18.003906 15.78125 18.042969 16.035156 C 18.140625 16.640625 18.152344 16.691406 18.210938 16.726562 C 18.273438 16.773438 18.683594 16.769531 18.734375 16.722656 C 18.753906 16.703125 18.769531 16.664062 18.769531 16.632812 C 18.769531 16.578125 18.703125 16.160156 18.449219 14.640625 C 18.375 14.183594 18.273438 13.5625 18.222656 13.257812 C 18.171875 12.957031 18.105469 12.558594 18.074219 12.375 C 18.042969 12.191406 17.984375 11.839844 17.945312 11.597656 C 17.90625 11.355469 17.859375 11.128906 17.84375 11.09375 C 17.816406 11.039062 17.773438 11.03125 17.527344 11.03125 C 17.253906 11.03125 17.242188 11.035156 17.214844 11.113281 M 21.910156 11.097656 C 21.894531 11.148438 21.890625 12.03125 21.890625 13.910156 L 21.890625 16.652344 L 21.9375 16.710938 C 22.003906 16.789062 22.476562 16.773438 22.503906 16.691406 C 22.515625 16.660156 22.523438 16.21875 22.523438 15.675781 L 22.523438 14.71875 L 22.945312 14.699219 C 23.296875 14.683594 23.394531 14.667969 23.515625 14.605469 C 23.820312 14.449219 24.011719 14.1875 24.097656 13.804688 C 24.140625 13.609375 24.144531 13.550781 24.144531 12.871094 C 24.144531 12.199219 24.140625 12.132812 24.097656 11.945312 C 24.035156 11.667969 23.90625 11.421875 23.753906 11.289062 C 23.496094 11.066406 23.460938 11.058594 22.660156 11.042969 C 21.949219 11.027344 21.929688 11.027344 21.910156 11.097656 M 24.671875 11.101562 C 24.65625 11.144531 24.652344 12.089844 24.652344 13.910156 L 24.652344 16.652344 L 24.699219 16.710938 C 24.738281 16.753906 24.792969 16.765625 24.976562 16.753906 C 25.101562 16.746094 25.210938 16.730469 25.21875 16.714844 C 25.230469 16.695312 25.242188 15.949219 25.246094 15.050781 L 25.257812 13.417969 L 25.304688 13.667969 C 25.328125 13.800781 25.402344 14.136719 25.46875 14.410156 C 25.535156 14.679688 25.632812 15.09375 25.6875 15.328125 C 25.742188 15.5625 25.804688 15.78125 25.828125 15.8125 C 25.859375 15.863281 25.90625 15.875 26.082031 15.875 C 26.351562 15.875 26.363281 15.859375 26.484375 15.328125 C 26.535156 15.113281 26.621094 14.722656 26.683594 14.460938 C 26.742188 14.199219 26.816406 13.839844 26.847656 13.667969 L 26.90625 13.347656 L 26.914062 15.015625 C 26.921875 15.933594 26.933594 16.695312 26.941406 16.714844 C 26.949219 16.730469 27.066406 16.746094 27.203125 16.753906 C 27.429688 16.765625 27.453125 16.761719 27.488281 16.691406 C 27.53125 16.617188 27.53125 16.605469 27.53125 13.917969 C 27.53125 12.246094 27.523438 11.179688 27.511719 11.121094 L 27.492188 11.03125 L 27.222656 11.03125 C 26.96875 11.03125 26.953125 11.035156 26.925781 11.113281 C 26.910156 11.15625 26.832031 11.476562 26.75 11.828125 C 26.261719 13.90625 26.164062 14.320312 26.132812 14.472656 C 26.09375 14.660156 26.078125 14.65625 26.039062 14.445312 C 26.019531 14.320312 25.414062 11.832031 25.265625 11.253906 L 25.207031 11.03125 L 24.949219 11.03125 C 24.714844 11.03125 24.691406 11.039062 24.671875 11.101562 M 22.523438 12.867188 L 22.523438 13.789062 L 22.808594 13.789062 C 23.214844 13.789062 23.359375 13.714844 23.46875 13.457031 C 23.5 13.375 23.507812 13.296875 23.515625 12.96875 C 23.523438 12.496094 23.511719 12.375 23.445312 12.234375 C 23.339844 12.007812 23.269531 11.972656 22.878906 11.957031 L 22.523438 11.945312 L 22.523438 12.867188 M 17.472656 12.648438 C 17.417969 13.261719 17.371094 13.648438 17.285156 14.152344 L 17.207031 14.601562 L 17.515625 14.601562 C 17.792969 14.601562 17.820312 14.597656 17.808594 14.542969 C 17.734375 14.199219 17.613281 13.304688 17.574219 12.816406 C 17.550781 12.496094 17.523438 12.234375 17.519531 12.234375 C 17.511719 12.234375 17.492188 12.421875 17.472656 12.648438 M 6.535156 19.199219 C 6.535156 19.375 6.53125 19.519531 6.527344 19.519531 C 6.523438 19.519531 6.496094 19.496094 6.460938 19.464844 C 6.335938 19.347656 6.210938 19.355469 6.136719 19.484375 C 6.101562 19.546875 6.097656 19.601562 6.097656 20.007812 C 6.097656 20.585938 6.113281 20.632812 6.289062 20.628906 C 6.359375 20.628906 6.433594 20.601562 6.46875 20.566406 C 6.527344 20.515625 6.535156 20.511719 6.535156 20.558594 C 6.535156 20.589844 6.546875 20.613281 6.566406 20.613281 C 6.589844 20.613281 6.59375 20.496094 6.59375 19.75 C 6.59375 19 6.589844 18.882812 6.566406 18.882812 C 6.539062 18.882812 6.535156 18.941406 6.535156 19.199219 M 6.871094 19.023438 C 6.871094 19.125 6.882812 19.164062 6.902344 19.164062 C 6.925781 19.164062 6.933594 19.125 6.933594 19.023438 C 6.933594 18.921875 6.925781 18.882812 6.902344 18.882812 C 6.882812 18.882812 6.871094 18.921875 6.871094 19.023438 M 11.878906 19.75 C 11.878906 20.496094 11.882812 20.613281 11.90625 20.613281 C 11.933594 20.613281 11.9375 20.496094 11.9375 19.75 C 11.9375 19 11.933594 18.882812 11.90625 18.882812 C 11.882812 18.882812 11.878906 19 11.878906 19.75 M 12.773438 19.023438 C 12.773438 19.125 12.78125 19.164062 12.800781 19.164062 C 12.824219 19.164062 12.832031 19.125 12.832031 19.023438 C 12.832031 18.921875 12.824219 18.882812 12.800781 18.882812 C 12.78125 18.882812 12.773438 18.921875 12.773438 19.023438 M 17.0625 19.023438 C 17.0625 19.140625 17.070312 19.164062 17.101562 19.164062 C 17.136719 19.164062 17.140625 19.140625 17.140625 19.023438 C 17.140625 18.90625 17.136719 18.882812 17.101562 18.882812 C 17.070312 18.882812 17.0625 18.90625 17.0625 19.023438 M 8.171875 18.949219 C 8.152344 18.964844 8.117188 19.015625 8.09375 19.058594 C 8.058594 19.128906 8.054688 19.1875 8.054688 19.789062 L 8.054688 20.445312 L 8.109375 20.527344 C 8.203125 20.671875 8.46875 20.6875 8.5625 20.546875 C 8.621094 20.464844 8.644531 20.121094 8.59375 20.121094 C 8.570312 20.121094 8.5625 20.152344 8.5625 20.246094 C 8.5625 20.441406 8.492188 20.542969 8.351562 20.542969 C 8.242188 20.542969 8.167969 20.5 8.140625 20.421875 C 8.132812 20.402344 8.125 20.109375 8.125 19.773438 C 8.125 19.03125 8.125 19.023438 8.332031 19.023438 C 8.445312 19.023438 8.46875 19.035156 8.511719 19.109375 C 8.542969 19.164062 8.5625 19.238281 8.5625 19.304688 C 8.5625 19.375 8.570312 19.414062 8.589844 19.414062 C 8.613281 19.414062 8.621094 19.375 8.621094 19.285156 C 8.621094 19.113281 8.589844 19.027344 8.511719 18.96875 C 8.4375 18.914062 8.238281 18.902344 8.171875 18.949219 M 19.71875 18.941406 C 19.710938 18.953125 19.703125 19.335938 19.703125 19.789062 C 19.703125 20.5 19.707031 20.613281 19.734375 20.613281 C 19.757812 20.613281 19.765625 20.519531 19.765625 19.960938 C 19.765625 19.605469 19.769531 19.300781 19.78125 19.292969 C 19.789062 19.28125 19.847656 19.5 19.914062 19.777344 C 20.039062 20.3125 20.054688 20.367188 20.089844 20.367188 C 20.105469 20.367188 20.171875 20.117188 20.242188 19.8125 L 20.371094 19.261719 L 20.375 19.9375 C 20.378906 20.585938 20.382812 20.613281 20.421875 20.613281 C 20.460938 20.613281 20.460938 20.59375 20.453125 19.773438 C 20.449219 19.074219 20.445312 18.933594 20.421875 18.933594 C 20.402344 18.933594 20.335938 19.171875 20.238281 19.589844 L 20.082031 20.242188 L 20.042969 20.066406 C 19.769531 18.917969 19.757812 18.871094 19.71875 18.941406 M 4.761719 18.980469 C 4.757812 18.992188 4.691406 19.355469 4.617188 19.785156 C 4.542969 20.210938 4.480469 20.574219 4.476562 20.585938 C 4.472656 20.601562 4.484375 20.613281 4.503906 20.613281 C 4.53125 20.613281 4.546875 20.554688 4.578125 20.375 L 4.617188 20.136719 L 4.800781 20.125 L 4.980469 20.117188 L 5.015625 20.351562 C 5.046875 20.550781 5.085938 20.660156 5.113281 20.609375 C 5.117188 20.601562 5.058594 20.226562 4.980469 19.773438 C 4.867188 19.109375 4.832031 18.953125 4.804688 18.953125 C 4.785156 18.953125 4.765625 18.964844 4.761719 18.980469 M 14.957031 19.785156 C 14.957031 20.5625 14.960938 20.617188 14.992188 20.609375 C 15.023438 20.597656 15.027344 20.546875 15.03125 20.269531 L 15.039062 19.941406 L 15.207031 19.941406 C 15.386719 19.941406 15.476562 19.890625 15.511719 19.769531 C 15.523438 19.730469 15.535156 19.574219 15.535156 19.417969 C 15.535156 19.144531 15.53125 19.132812 15.472656 19.042969 C 15.414062 18.957031 15.398438 18.953125 15.183594 18.953125 L 14.957031 18.953125 L 14.957031 19.785156 M 15.035156 19.453125 L 15.035156 19.882812 L 15.199219 19.863281 C 15.417969 19.835938 15.460938 19.777344 15.46875 19.5 C 15.472656 19.382812 15.46875 19.253906 15.464844 19.207031 C 15.449219 19.089844 15.34375 19.023438 15.175781 19.023438 L 15.035156 19.023438 L 15.035156 19.453125 M 4.722656 19.527344 C 4.679688 19.769531 4.648438 19.976562 4.648438 19.992188 C 4.648438 20.003906 4.714844 20.011719 4.796875 20.011719 C 4.902344 20.011719 4.945312 20 4.945312 19.96875 C 4.945312 19.945312 4.910156 19.738281 4.871094 19.507812 L 4.796875 19.085938 L 4.722656 19.527344 M 7.269531 19.238281 C 7.269531 19.332031 7.261719 19.382812 7.238281 19.394531 C 7.144531 19.449219 7.140625 19.457031 7.199219 19.480469 L 7.261719 19.5 L 7.265625 19.984375 C 7.269531 20.460938 7.273438 20.472656 7.324219 20.542969 C 7.355469 20.589844 7.402344 20.613281 7.460938 20.613281 C 7.570312 20.613281 7.574219 20.558594 7.46875 20.53125 C 7.339844 20.492188 7.328125 20.457031 7.328125 19.941406 L 7.328125 19.484375 L 7.417969 19.484375 C 7.46875 19.484375 7.507812 19.46875 7.507812 19.449219 C 7.507812 19.429688 7.46875 19.414062 7.417969 19.414062 L 7.328125 19.414062 L 7.328125 19.253906 C 7.328125 19.136719 7.320312 19.09375 7.300781 19.09375 C 7.277344 19.09375 7.269531 19.132812 7.269531 19.238281 M 12.253906 19.253906 C 12.253906 19.398438 12.25 19.414062 12.207031 19.414062 C 12.179688 19.414062 12.15625 19.429688 12.15625 19.449219 C 12.15625 19.46875 12.179688 19.484375 12.207031 19.484375 L 12.253906 19.484375 L 12.253906 19.960938 C 12.253906 20.421875 12.257812 20.445312 12.304688 20.527344 C 12.34375 20.59375 12.375 20.613281 12.445312 20.613281 C 12.554688 20.613281 12.5625 20.5625 12.453125 20.53125 C 12.328125 20.496094 12.3125 20.417969 12.320312 19.921875 L 12.324219 19.5 L 12.417969 19.488281 C 12.472656 19.484375 12.515625 19.464844 12.515625 19.449219 C 12.515625 19.429688 12.472656 19.410156 12.417969 19.40625 L 12.324219 19.394531 L 12.320312 19.246094 C 12.316406 19.140625 12.304688 19.09375 12.285156 19.09375 C 12.265625 19.09375 12.253906 19.136719 12.253906 19.253906 M 18.910156 19.253906 C 18.910156 19.398438 18.90625 19.414062 18.859375 19.414062 C 18.796875 19.414062 18.792969 19.472656 18.855469 19.488281 C 18.898438 19.5 18.898438 19.515625 18.910156 19.988281 C 18.917969 20.449219 18.921875 20.484375 18.96875 20.546875 C 18.996094 20.589844 19.042969 20.613281 19.101562 20.613281 C 19.207031 20.613281 19.214844 20.558594 19.113281 20.53125 C 18.980469 20.492188 18.96875 20.4375 18.972656 19.9375 L 18.980469 19.5 L 19.0625 19.488281 C 19.175781 19.476562 19.171875 19.414062 19.058594 19.414062 L 18.96875 19.414062 L 18.96875 19.253906 C 18.96875 19.136719 18.960938 19.09375 18.941406 19.09375 C 18.917969 19.09375 18.910156 19.136719 18.910156 19.253906 M 27.246094 19.117188 C 27.238281 19.128906 27.234375 19.203125 27.234375 19.277344 C 27.234375 19.398438 27.226562 19.414062 27.183594 19.414062 C 27.15625 19.414062 27.132812 19.429688 27.132812 19.449219 C 27.132812 19.46875 27.15625 19.484375 27.183594 19.484375 L 27.234375 19.484375 L 27.234375 19.878906 C 27.234375 20.515625 27.261719 20.613281 27.453125 20.613281 C 27.554688 20.613281 27.550781 20.558594 27.449219 20.527344 C 27.3125 20.492188 27.3125 20.484375 27.3125 19.957031 L 27.3125 19.484375 L 27.402344 19.484375 C 27.449219 19.484375 27.492188 19.46875 27.492188 19.449219 C 27.492188 19.429688 27.453125 19.414062 27.402344 19.414062 L 27.316406 19.414062 L 27.308594 19.265625 C 27.300781 19.125 27.277344 19.0625 27.246094 19.117188 M 8.964844 19.429688 C 8.925781 19.457031 8.890625 19.519531 8.878906 19.570312 C 8.851562 19.695312 8.855469 20.390625 8.878906 20.476562 C 8.953125 20.714844 9.304688 20.695312 9.355469 20.453125 C 9.367188 20.402344 9.375 20.207031 9.375 20.011719 C 9.375 19.820312 9.367188 19.621094 9.355469 19.570312 C 9.320312 19.398438 9.105469 19.320312 8.964844 19.429688 M 9.820312 19.414062 C 9.785156 19.433594 9.75 19.464844 9.742188 19.484375 C 9.722656 19.535156 9.691406 19.523438 9.691406 19.464844 C 9.691406 19.4375 9.679688 19.414062 9.664062 19.414062 C 9.636719 19.414062 9.632812 19.503906 9.632812 20.011719 C 9.632812 20.523438 9.636719 20.613281 9.664062 20.613281 C 9.6875 20.613281 9.691406 20.535156 9.691406 20.121094 L 9.691406 19.625 L 9.773438 19.554688 C 9.875 19.460938 9.980469 19.460938 10.03125 19.554688 C 10.066406 19.617188 10.070312 19.671875 10.070312 20.121094 C 10.070312 20.535156 10.074219 20.613281 10.101562 20.613281 C 10.125 20.613281 10.128906 20.535156 10.128906 20.105469 C 10.128906 19.824219 10.125 19.570312 10.117188 19.539062 C 10.089844 19.402344 9.953125 19.347656 9.820312 19.414062 M 10.476562 19.429688 C 10.402344 19.503906 10.390625 19.542969 10.390625 19.6875 C 10.386719 19.875 10.425781 19.933594 10.597656 20.035156 C 10.683594 20.085938 10.765625 20.144531 10.78125 20.164062 C 10.792969 20.183594 10.804688 20.261719 10.804688 20.335938 C 10.804688 20.503906 10.761719 20.554688 10.613281 20.554688 C 10.5 20.554688 10.429688 20.480469 10.429688 20.363281 C 10.429688 20.324219 10.414062 20.296875 10.398438 20.296875 C 10.359375 20.296875 10.359375 20.398438 10.398438 20.496094 C 10.441406 20.605469 10.554688 20.664062 10.671875 20.636719 C 10.804688 20.609375 10.867188 20.511719 10.867188 20.3125 C 10.867188 20.125 10.832031 20.074219 10.648438 19.960938 C 10.46875 19.851562 10.449219 19.824219 10.449219 19.671875 C 10.449219 19.566406 10.457031 19.542969 10.523438 19.496094 C 10.632812 19.414062 10.746094 19.464844 10.785156 19.613281 C 10.824219 19.757812 10.84375 19.761719 10.84375 19.625 C 10.84375 19.550781 10.832031 19.503906 10.792969 19.460938 C 10.722656 19.375 10.550781 19.359375 10.476562 19.429688 M 13.253906 19.445312 C 13.183594 19.503906 13.167969 19.503906 13.167969 19.464844 C 13.167969 19.433594 13.15625 19.414062 13.140625 19.414062 C 13.113281 19.414062 13.109375 19.503906 13.109375 20.011719 C 13.109375 20.523438 13.113281 20.613281 13.140625 20.613281 C 13.164062 20.613281 13.167969 20.535156 13.167969 20.121094 L 13.167969 19.625 L 13.25 19.554688 C 13.351562 19.460938 13.457031 19.460938 13.507812 19.554688 C 13.542969 19.617188 13.546875 19.671875 13.546875 20.121094 C 13.546875 20.535156 13.550781 20.613281 13.578125 20.613281 C 13.601562 20.613281 13.605469 20.535156 13.605469 20.128906 C 13.605469 19.859375 13.601562 19.605469 13.59375 19.5625 C 13.566406 19.382812 13.402344 19.328125 13.253906 19.445312 M 13.949219 19.414062 C 13.878906 19.464844 13.863281 19.5625 13.863281 20.023438 C 13.863281 20.582031 13.878906 20.632812 14.058594 20.632812 C 14.136719 20.628906 14.195312 20.609375 14.226562 20.570312 C 14.257812 20.535156 14.285156 20.507812 14.292969 20.507812 C 14.296875 20.507812 14.300781 20.601562 14.300781 20.714844 C 14.300781 20.996094 14.273438 21.039062 14.066406 21.066406 C 13.976562 21.074219 13.90625 21.097656 13.90625 21.113281 C 13.90625 21.132812 13.976562 21.144531 14.0625 21.144531 C 14.230469 21.144531 14.324219 21.089844 14.347656 20.984375 C 14.355469 20.953125 14.359375 20.585938 14.359375 20.167969 C 14.359375 19.519531 14.355469 19.414062 14.332031 19.414062 C 14.316406 19.414062 14.300781 19.4375 14.300781 19.464844 C 14.300781 19.53125 14.304688 19.53125 14.199219 19.449219 C 14.109375 19.375 14.019531 19.363281 13.949219 19.414062 M 15.945312 19.46875 C 15.855469 19.550781 15.851562 19.554688 15.851562 19.484375 C 15.851562 19.445312 15.835938 19.414062 15.820312 19.414062 C 15.796875 19.414062 15.792969 19.503906 15.792969 20.011719 C 15.792969 20.523438 15.796875 20.613281 15.820312 20.613281 C 15.847656 20.613281 15.851562 20.539062 15.851562 20.136719 L 15.851562 19.660156 L 15.914062 19.589844 C 15.949219 19.550781 16.007812 19.507812 16.042969 19.496094 C 16.082031 19.484375 16.109375 19.453125 16.109375 19.425781 C 16.109375 19.355469 16.050781 19.367188 15.945312 19.46875 M 16.414062 19.429688 C 16.378906 19.457031 16.339844 19.507812 16.328125 19.546875 C 16.316406 19.589844 16.308594 19.808594 16.308594 20.039062 C 16.308594 20.429688 16.3125 20.464844 16.351562 20.535156 C 16.4375 20.675781 16.6875 20.679688 16.765625 20.542969 C 16.800781 20.480469 16.804688 20.421875 16.804688 20.015625 C 16.804688 19.597656 16.800781 19.550781 16.761719 19.488281 C 16.691406 19.371094 16.523438 19.34375 16.414062 19.429688 M 17.480469 19.4375 L 17.410156 19.5 L 17.40625 20.003906 C 17.398438 20.503906 17.398438 20.503906 17.449219 20.5625 C 17.550781 20.683594 17.765625 20.671875 17.839844 20.542969 C 17.882812 20.464844 17.894531 20.246094 17.851562 20.269531 C 17.839844 20.277344 17.824219 20.324219 17.820312 20.371094 C 17.8125 20.496094 17.761719 20.542969 17.644531 20.542969 C 17.480469 20.542969 17.460938 20.511719 17.460938 20.242188 L 17.460938 20.011719 L 17.878906 20.011719 L 17.878906 19.785156 C 17.878906 19.542969 17.855469 19.472656 17.761719 19.410156 C 17.6875 19.359375 17.554688 19.371094 17.480469 19.4375 M 18.214844 19.4375 C 18.128906 19.515625 18.121094 19.582031 18.121094 20.011719 C 18.121094 20.199219 18.125 20.390625 18.132812 20.4375 C 18.171875 20.683594 18.527344 20.726562 18.589844 20.488281 C 18.621094 20.363281 18.617188 20.261719 18.582031 20.261719 C 18.5625 20.261719 18.550781 20.292969 18.550781 20.34375 C 18.550781 20.480469 18.492188 20.542969 18.367188 20.542969 C 18.203125 20.542969 18.195312 20.515625 18.195312 20.015625 C 18.195312 19.523438 18.207031 19.484375 18.367188 19.484375 C 18.484375 19.484375 18.550781 19.554688 18.550781 19.683594 C 18.550781 19.738281 18.5625 19.765625 18.578125 19.757812 C 18.621094 19.730469 18.617188 19.601562 18.566406 19.5 C 18.527344 19.414062 18.5 19.398438 18.402344 19.386719 C 18.316406 19.375 18.265625 19.390625 18.214844 19.4375 M 20.855469 19.402344 C 20.761719 19.460938 20.691406 19.730469 20.765625 19.730469 C 20.785156 19.730469 20.796875 19.699219 20.796875 19.664062 C 20.796875 19.546875 20.863281 19.484375 20.980469 19.484375 C 21.117188 19.484375 21.15625 19.546875 21.15625 19.773438 L 21.15625 19.933594 L 20.984375 19.949219 C 20.824219 19.960938 20.808594 19.96875 20.765625 20.058594 C 20.734375 20.128906 20.71875 20.203125 20.71875 20.296875 C 20.71875 20.59375 20.878906 20.730469 21.0625 20.585938 C 21.136719 20.527344 21.15625 20.523438 21.15625 20.5625 C 21.15625 20.589844 21.167969 20.613281 21.183594 20.613281 C 21.210938 20.613281 21.214844 20.535156 21.214844 20.097656 C 21.214844 19.816406 21.207031 19.554688 21.195312 19.519531 C 21.160156 19.40625 20.957031 19.335938 20.855469 19.402344 M 21.675781 19.414062 C 21.640625 19.433594 21.609375 19.464844 21.601562 19.484375 C 21.582031 19.535156 21.550781 19.523438 21.550781 19.464844 C 21.550781 19.4375 21.539062 19.414062 21.523438 19.414062 C 21.496094 19.414062 21.492188 19.503906 21.492188 20.011719 C 21.492188 20.523438 21.496094 20.613281 21.523438 20.613281 C 21.546875 20.613281 21.550781 20.535156 21.550781 20.121094 L 21.550781 19.625 L 21.628906 19.554688 C 21.730469 19.460938 21.835938 19.460938 21.890625 19.554688 C 21.925781 19.617188 21.929688 19.671875 21.929688 20.121094 C 21.929688 20.535156 21.933594 20.613281 21.960938 20.613281 C 21.984375 20.613281 21.988281 20.535156 21.988281 20.105469 C 21.988281 19.824219 21.984375 19.570312 21.976562 19.539062 C 21.949219 19.402344 21.8125 19.347656 21.675781 19.414062 M 22.371094 19.398438 C 22.285156 19.433594 22.199219 19.730469 22.277344 19.730469 C 22.292969 19.730469 22.308594 19.699219 22.308594 19.660156 C 22.308594 19.554688 22.382812 19.484375 22.496094 19.484375 C 22.625 19.484375 22.664062 19.550781 22.664062 19.773438 L 22.664062 19.933594 L 22.496094 19.949219 C 22.28125 19.964844 22.246094 20.011719 22.246094 20.296875 C 22.246094 20.449219 22.257812 20.511719 22.285156 20.558594 C 22.347656 20.65625 22.464844 20.667969 22.574219 20.585938 C 22.652344 20.523438 22.667969 20.519531 22.675781 20.5625 C 22.710938 20.710938 22.722656 20.558594 22.722656 20.066406 L 22.722656 19.519531 L 22.671875 19.460938 C 22.621094 19.398438 22.457031 19.367188 22.371094 19.398438 M 23.046875 19.460938 C 22.992188 19.546875 22.992188 19.554688 22.984375 19.992188 L 22.980469 20.4375 L 23.039062 20.542969 C 23.109375 20.671875 23.207031 20.683594 23.335938 20.578125 L 23.417969 20.511719 L 23.417969 20.738281 C 23.417969 21.011719 23.402344 21.035156 23.1875 21.0625 C 22.976562 21.09375 23.003906 21.15625 23.222656 21.140625 C 23.390625 21.128906 23.40625 21.121094 23.449219 21.027344 C 23.496094 20.929688 23.5 20.921875 23.5 20.171875 C 23.5 19.519531 23.496094 19.414062 23.46875 19.414062 C 23.453125 19.414062 23.4375 19.4375 23.4375 19.464844 C 23.4375 19.53125 23.441406 19.53125 23.335938 19.449219 C 23.21875 19.351562 23.117188 19.355469 23.046875 19.460938 M 23.847656 19.429688 C 23.8125 19.460938 23.78125 19.507812 23.773438 19.527344 C 23.765625 19.550781 23.757812 19.773438 23.757812 20.023438 C 23.757812 20.421875 23.761719 20.480469 23.796875 20.542969 C 23.867188 20.671875 24.082031 20.683594 24.183594 20.5625 C 24.222656 20.519531 24.234375 20.476562 24.234375 20.382812 C 24.234375 20.316406 24.222656 20.261719 24.214844 20.261719 C 24.203125 20.261719 24.195312 20.292969 24.195312 20.332031 C 24.195312 20.46875 24.125 20.542969 24 20.542969 C 23.847656 20.542969 23.816406 20.488281 23.816406 20.214844 L 23.816406 20.011719 L 24.234375 20.011719 L 24.234375 19.765625 C 24.234375 19.539062 24.230469 19.515625 24.179688 19.460938 C 24.109375 19.375 23.921875 19.359375 23.847656 19.429688 M 24.652344 19.449219 C 24.550781 19.53125 24.550781 19.53125 24.550781 19.464844 C 24.550781 19.4375 24.539062 19.414062 24.519531 19.414062 C 24.496094 19.414062 24.492188 19.503906 24.492188 20.011719 C 24.492188 20.523438 24.496094 20.613281 24.519531 20.613281 C 24.546875 20.613281 24.550781 20.535156 24.550781 20.121094 L 24.550781 19.625 L 24.628906 19.554688 C 24.730469 19.460938 24.835938 19.460938 24.890625 19.554688 C 24.925781 19.617188 24.929688 19.671875 24.929688 20.121094 C 24.929688 20.535156 24.933594 20.613281 24.957031 20.613281 C 24.984375 20.613281 24.988281 20.535156 24.988281 20.121094 L 24.988281 19.625 L 25.066406 19.554688 C 25.160156 19.46875 25.261719 19.464844 25.316406 19.539062 C 25.351562 19.585938 25.355469 19.640625 25.363281 20.101562 C 25.367188 20.527344 25.375 20.613281 25.398438 20.613281 C 25.421875 20.613281 25.425781 20.535156 25.421875 20.082031 L 25.414062 19.546875 L 25.359375 19.460938 C 25.285156 19.351562 25.179688 19.351562 25.0625 19.464844 C 25.011719 19.511719 24.96875 19.535156 24.96875 19.519531 C 24.96875 19.464844 24.859375 19.375 24.796875 19.378906 C 24.765625 19.378906 24.699219 19.410156 24.652344 19.449219 M 25.773438 19.433594 C 25.742188 19.460938 25.707031 19.507812 25.699219 19.527344 C 25.675781 19.589844 25.679688 20.429688 25.703125 20.507812 C 25.746094 20.648438 25.960938 20.695312 26.078125 20.585938 C 26.144531 20.527344 26.195312 20.363281 26.167969 20.289062 C 26.148438 20.230469 26.125 20.261719 26.109375 20.367188 C 26.09375 20.503906 26.050781 20.542969 25.917969 20.542969 C 25.773438 20.542969 25.742188 20.484375 25.742188 20.214844 L 25.742188 20.015625 L 25.957031 20.003906 L 26.171875 19.996094 L 26.175781 19.871094 C 26.1875 19.65625 26.148438 19.484375 26.070312 19.425781 C 25.980469 19.359375 25.847656 19.363281 25.773438 19.433594 M 26.582031 19.445312 C 26.476562 19.53125 26.476562 19.53125 26.476562 19.464844 C 26.476562 19.4375 26.464844 19.414062 26.449219 19.414062 C 26.421875 19.414062 26.417969 19.503906 26.417969 20.011719 C 26.417969 20.523438 26.421875 20.613281 26.449219 20.613281 C 26.472656 20.613281 26.476562 20.535156 26.476562 20.117188 L 26.476562 19.621094 L 26.5625 19.550781 C 26.671875 19.464844 26.78125 19.460938 26.824219 19.546875 C 26.851562 19.601562 26.855469 19.695312 26.855469 20.113281 C 26.855469 20.535156 26.859375 20.613281 26.886719 20.613281 C 26.910156 20.613281 26.914062 20.53125 26.914062 20.070312 C 26.914062 19.578125 26.910156 19.523438 26.875 19.464844 C 26.816406 19.371094 26.683594 19.363281 26.582031 19.445312 M 5.34375 19.9375 C 5.34375 20.59375 5.355469 20.632812 5.535156 20.632812 C 5.613281 20.628906 5.671875 20.609375 5.707031 20.570312 C 5.769531 20.496094 5.78125 20.492188 5.78125 20.5625 C 5.78125 20.589844 5.792969 20.613281 5.808594 20.613281 C 5.835938 20.613281 5.839844 20.523438 5.839844 20.011719 C 5.839844 19.503906 5.835938 19.414062 5.808594 19.414062 C 5.785156 19.414062 5.78125 19.492188 5.78125 19.902344 L 5.78125 20.394531 L 5.726562 20.457031 C 5.695312 20.492188 5.628906 20.527344 5.578125 20.535156 C 5.503906 20.550781 5.480469 20.539062 5.445312 20.476562 C 5.40625 20.40625 5.402344 20.363281 5.402344 19.90625 C 5.402344 19.492188 5.398438 19.414062 5.375 19.414062 C 5.347656 19.414062 5.34375 19.496094 5.34375 19.9375 M 6.871094 20.011719 C 6.871094 20.523438 6.878906 20.613281 6.902344 20.613281 C 6.929688 20.613281 6.933594 20.523438 6.933594 20.011719 C 6.933594 19.503906 6.929688 19.414062 6.902344 19.414062 C 6.878906 19.414062 6.871094 19.503906 6.871094 20.011719 M 11.105469 19.9375 C 11.105469 20.59375 11.113281 20.632812 11.296875 20.632812 C 11.375 20.628906 11.433594 20.609375 11.46875 20.566406 C 11.515625 20.511719 11.523438 20.511719 11.535156 20.558594 C 11.539062 20.589844 11.558594 20.613281 11.574219 20.613281 C 11.59375 20.613281 11.601562 20.503906 11.601562 20.011719 C 11.601562 19.503906 11.597656 19.414062 11.570312 19.414062 C 11.546875 19.414062 11.539062 19.492188 11.539062 19.902344 L 11.539062 20.394531 L 11.488281 20.457031 C 11.457031 20.492188 11.390625 20.527344 11.339844 20.535156 C 11.265625 20.550781 11.238281 20.539062 11.207031 20.476562 C 11.167969 20.40625 11.164062 20.363281 11.164062 19.90625 C 11.164062 19.492188 11.160156 19.414062 11.132812 19.414062 C 11.109375 19.414062 11.105469 19.496094 11.105469 19.9375 M 12.773438 20.011719 C 12.773438 20.523438 12.777344 20.613281 12.800781 20.613281 C 12.828125 20.613281 12.832031 20.523438 12.832031 20.011719 C 12.832031 19.503906 12.828125 19.414062 12.800781 19.414062 C 12.777344 19.414062 12.773438 19.503906 12.773438 20.011719 M 17.0625 20.167969 C 17.0625 20.976562 17.054688 21.039062 16.964844 21.039062 C 16.910156 21.039062 16.863281 21.074219 16.863281 21.117188 C 16.863281 21.183594 17.042969 21.121094 17.089844 21.042969 C 17.128906 20.96875 17.132812 20.929688 17.136719 20.1875 C 17.144531 19.425781 17.144531 19.414062 17.101562 19.414062 C 17.0625 19.414062 17.0625 19.429688 17.0625 20.167969 M 6.199219 19.554688 C 6.164062 19.617188 6.15625 19.671875 6.15625 20.011719 C 6.15625 20.363281 6.160156 20.410156 6.199219 20.476562 C 6.234375 20.539062 6.257812 20.550781 6.335938 20.535156 C 6.390625 20.527344 6.457031 20.492188 6.484375 20.460938 C 6.535156 20.402344 6.535156 20.390625 6.535156 20.011719 L 6.535156 19.621094 L 6.449219 19.550781 C 6.339844 19.464844 6.246094 19.464844 6.199219 19.554688 M 8.972656 19.546875 C 8.945312 19.601562 8.9375 19.691406 8.9375 20.023438 C 8.9375 20.515625 8.949219 20.542969 9.109375 20.542969 C 9.292969 20.542969 9.296875 20.539062 9.296875 20.035156 C 9.296875 19.515625 9.285156 19.484375 9.113281 19.484375 C 9.03125 19.484375 8.996094 19.5 8.972656 19.546875 M 13.964844 19.554688 C 13.929688 19.617188 13.925781 19.671875 13.925781 20.011719 C 13.925781 20.363281 13.929688 20.410156 13.964844 20.476562 C 14 20.539062 14.027344 20.550781 14.101562 20.535156 C 14.152344 20.527344 14.21875 20.492188 14.246094 20.457031 C 14.300781 20.394531 14.300781 20.390625 14.300781 20.007812 L 14.300781 19.621094 L 14.21875 19.550781 C 14.105469 19.464844 14.015625 19.464844 13.964844 19.554688 M 16.40625 19.554688 C 16.371094 19.617188 16.367188 19.671875 16.367188 20.011719 C 16.367188 20.355469 16.371094 20.410156 16.40625 20.472656 C 16.457031 20.5625 16.632812 20.570312 16.699219 20.488281 C 16.742188 20.4375 16.746094 20.40625 16.746094 20.011719 C 16.746094 19.617188 16.742188 19.589844 16.699219 19.539062 C 16.632812 19.453125 16.457031 19.464844 16.40625 19.554688 M 17.492188 19.546875 C 17.472656 19.589844 17.460938 19.671875 17.460938 19.777344 L 17.460938 19.941406 L 17.816406 19.941406 L 17.816406 19.769531 C 17.816406 19.542969 17.78125 19.484375 17.636719 19.484375 C 17.554688 19.484375 17.515625 19.5 17.492188 19.546875 M 23.105469 19.539062 C 23.0625 19.589844 23.0625 19.617188 23.0625 20.011719 C 23.0625 20.519531 23.074219 20.5625 23.222656 20.535156 C 23.273438 20.527344 23.339844 20.492188 23.367188 20.460938 C 23.417969 20.398438 23.421875 20.394531 23.414062 20.003906 L 23.410156 19.605469 L 23.339844 19.546875 C 23.25 19.46875 23.164062 19.46875 23.105469 19.539062 M 23.859375 19.539062 C 23.824219 19.582031 23.816406 19.628906 23.816406 19.769531 L 23.816406 19.945312 L 24 19.933594 L 24.183594 19.925781 L 24.183594 19.757812 C 24.179688 19.632812 24.171875 19.574219 24.144531 19.535156 C 24.089844 19.46875 23.917969 19.46875 23.859375 19.539062 M 25.789062 19.539062 C 25.75 19.582031 25.742188 19.628906 25.742188 19.769531 L 25.742188 19.945312 L 25.925781 19.933594 L 26.109375 19.925781 L 26.117188 19.800781 C 26.121094 19.710938 26.109375 19.644531 26.082031 19.578125 C 26.042969 19.496094 26.023438 19.484375 25.933594 19.484375 C 25.875 19.484375 25.8125 19.503906 25.789062 19.539062 M 20.808594 20.128906 C 20.792969 20.171875 20.777344 20.246094 20.777344 20.296875 C 20.777344 20.347656 20.792969 20.421875 20.808594 20.464844 C 20.847656 20.570312 20.996094 20.574219 21.089844 20.472656 C 21.148438 20.410156 21.15625 20.386719 21.15625 20.226562 L 21.15625 20.046875 L 20.996094 20.046875 C 20.855469 20.046875 20.835938 20.058594 20.808594 20.128906 M 22.332031 20.089844 C 22.316406 20.113281 22.308594 20.210938 22.308594 20.300781 C 22.308594 20.433594 22.316406 20.480469 22.34375 20.507812 C 22.402344 20.5625 22.519531 20.550781 22.597656 20.488281 C 22.660156 20.433594 22.664062 20.421875 22.664062 20.238281 L 22.664062 20.046875 L 22.507812 20.046875 C 22.414062 20.046875 22.34375 20.066406 22.332031 20.089844 "/>
</g>
</svg>
